<svg width="53" height="49" viewBox="0 0 53 49" fill="none" xmlns="http://www.w3.org/2000/svg">
<path d="M8.10938 48.0547C6.66081 48.0547 5.39941 47.7292 4.3252 47.0781C3.26725 46.4434 2.44531 45.5807 1.85938 44.4902C1.27344 43.416 0.980469 42.2279 0.980469 40.9258C0.980469 39.6725 1.30599 38.4762 1.95703 37.3369L20.8291 4.42676C21.4964 3.23861 22.3753 2.34342 23.4658 1.74121C24.5726 1.139 25.7363 0.837891 26.957 0.837891C28.1615 0.837891 29.3089 1.139 30.3994 1.74121C31.4899 2.34342 32.377 3.23861 33.0605 4.42676L51.9326 37.3369C52.2581 37.9066 52.5023 38.5007 52.665 39.1191C52.8278 39.7214 52.9092 40.3236 52.9092 40.9258C52.9092 42.2279 52.6162 43.416 52.0303 44.4902C51.4443 45.5807 50.6143 46.4434 49.54 47.0781C48.4821 47.7292 47.2288 48.0547 45.7803 48.0547H8.10938ZM26.9814 30.9893C28.5439 30.9893 29.3577 30.1755 29.4229 28.5479L29.8135 17C29.846 16.2025 29.5856 15.5433 29.0322 15.0225C28.4951 14.4854 27.8034 14.2168 26.957 14.2168C26.0944 14.2168 25.3945 14.4772 24.8574 14.998C24.3203 15.5189 24.068 16.1862 24.1006 17L24.4668 28.5479C24.5319 30.1755 25.3701 30.9893 26.9814 30.9893ZM26.9814 39.583C27.8604 39.583 28.609 39.3145 29.2275 38.7773C29.846 38.224 30.1553 37.516 30.1553 36.6533C30.1553 35.807 29.846 35.1071 29.2275 34.5537C28.609 34.0003 27.8604 33.7236 26.9814 33.7236C26.0863 33.7236 25.3294 34.0003 24.7109 34.5537C24.0924 35.1071 23.7832 35.807 23.7832 36.6533C23.7832 37.516 24.0924 38.224 24.7109 38.7773C25.3457 39.3145 26.1025 39.583 26.9814 39.583Z" fill="#96A1B2"/>
</svg>
