<svg width="14" height="14" viewBox="0 0 14 14" fill="none" xmlns="http://www.w3.org/2000/svg">
<path d="M7 14L6.2825 13.2933C5.04854 12.0567 4.02838 10.9899 3.22203 10.093C2.41568 9.19606 1.77333 8.39427 1.295 7.68759C0.816667 6.9809 0.48125 6.34106 0.28875 5.76808C0.09625 5.19509 0 4.61573 0 4.03001C0 2.88206 0.352917 1.92341 1.05875 1.15405C1.76458 0.384684 2.63667 0 3.675 0C4.34 0 4.95542 0.171896 5.52125 0.515689C6.08708 0.859482 6.58 1.35607 7 2.00546C7.49 1.31787 8.00917 0.811733 8.5575 0.48704C9.10583 0.162347 9.695 0 10.325 0C11.3633 0 12.2354 0.384684 12.9413 1.15405C13.6471 1.92341 14 2.88206 14 4.03001C14 4.61573 13.9038 5.19509 13.7113 5.76808C13.5188 6.34106 13.1833 6.9809 12.705 7.68759C12.2267 8.39427 11.5843 9.19606 10.778 10.093C9.97162 10.9899 8.95146 12.0567 7.7175 13.2933L7 14ZM7 12.4911C8.18109 11.307 9.15302 10.2916 9.91581 9.44479C10.6786 8.59801 11.2846 7.8563 11.7338 7.21965C12.1829 6.58299 12.4979 6.01551 12.6788 5.5172C12.8596 5.01888 12.95 4.52408 12.95 4.03278C12.95 3.19056 12.705 2.49886 12.215 1.95771C11.725 1.41655 11.0963 1.14598 10.3289 1.14598C9.72782 1.14598 9.17147 1.34652 8.65987 1.74761C8.14829 2.1487 7.735 2.71214 7.42 3.43793H6.5625C6.25917 2.72488 5.85171 2.16462 5.34012 1.75716C4.82853 1.3497 4.27218 1.14598 3.67106 1.14598C2.90369 1.14598 2.275 1.41655 1.785 1.95771C1.295 2.49886 1.05 3.19164 1.05 4.03605C1.05 4.52861 1.14042 5.02638 1.32125 5.52933C1.50208 6.03229 1.81708 6.60528 2.26625 7.24829C2.71542 7.89131 3.325 8.63302 4.095 9.4734C4.865 10.3138 5.83333 11.3197 7 12.4911Z" fill="black"/>
</svg>
