<svg width="7" height="11" viewBox="0 0 7 11" fill="none" xmlns="http://www.w3.org/2000/svg">
<path d="M3.5 7.93625C4.39833 7.23742 5.07662 6.5648 5.53486 5.91838C5.9931 5.27196 6.22222 4.66959 6.22222 4.11125C6.22222 3.61959 6.12932 3.20292 5.94352 2.86125C5.75772 2.51959 5.52866 2.24092 5.25636 2.02525C4.98406 1.80958 4.68906 1.65333 4.37137 1.5565C4.05368 1.45967 3.76323 1.41125 3.5 1.41125C3.23677 1.41125 2.94632 1.45967 2.62863 1.5565C2.31094 1.65333 2.01594 1.80958 1.74364 2.02525C1.47134 2.24092 1.24228 2.51959 1.05648 2.86125C0.870679 3.20292 0.777778 3.61959 0.777778 4.11125C0.777778 4.66959 1.0069 5.27196 1.46514 5.91838C1.92338 6.5648 2.60167 7.23742 3.5 7.93625ZM3.5 8.88626C2.31605 8.02792 1.43673 7.20626 0.862037 6.42127C0.287346 5.63627 0 4.86729 0 4.11434C0 3.54562 0.105864 3.04667 0.317593 2.6175C0.529321 2.18834 0.803704 1.82792 1.14074 1.53625C1.47778 1.24459 1.85362 1.02584 2.26826 0.880005C2.6829 0.734172 3.0934 0.661255 3.49974 0.661255C3.90609 0.661255 4.31667 0.734172 4.73148 0.880005C5.1463 1.02584 5.52222 1.24459 5.85926 1.53625C6.1963 1.82792 6.47068 2.18848 6.68241 2.61792C6.89414 3.04736 7 3.54704 7 4.11695C7 4.87149 6.71265 5.64042 6.13796 6.42375C5.56327 7.20709 4.68395 8.02792 3.5 8.88626ZM3.50115 4.91125C3.751 4.91125 3.96451 4.82547 4.14167 4.65389C4.31883 4.48233 4.40741 4.27608 4.40741 4.03514C4.40741 3.79422 4.31844 3.58834 4.14051 3.4175C3.96259 3.24667 3.7487 3.16125 3.49885 3.16125C3.249 3.16125 3.03549 3.24704 2.85833 3.41862C2.68117 3.59018 2.59259 3.79643 2.59259 4.03737C2.59259 4.27829 2.68156 4.48417 2.85949 4.655C3.03741 4.82584 3.2513 4.91125 3.50115 4.91125ZM0 10.6613V9.91126H7V10.6613H0Z" fill="black"/>
</svg>
