<svg width="14" height="14" viewBox="0 0 14 14" fill="none" xmlns="http://www.w3.org/2000/svg">
<path d="M10.6021 12.8334C10.1403 12.8334 9.74774 12.6713 9.42448 12.3471C9.10121 12.0229 8.93958 11.6292 8.93958 11.166C8.93958 11.1012 8.94687 11.0219 8.96146 10.9281C8.97604 10.8344 8.99792 10.75 9.02708 10.675L4.60833 8.10835C4.4625 8.27363 4.28264 8.40731 4.06875 8.50939C3.85486 8.61148 3.63611 8.66252 3.4125 8.66252C2.95069 8.66252 2.55816 8.50089 2.2349 8.17762C1.91163 7.85436 1.75 7.46183 1.75 7.00002C1.75 6.53821 1.91163 6.14568 2.2349 5.82242C2.55816 5.49915 2.95069 5.33752 3.4125 5.33752C3.63611 5.33752 3.85 5.38127 4.05417 5.46877C4.25833 5.55627 4.44306 5.68266 4.60833 5.84794L9.02708 3.31044C8.99792 3.24169 8.97604 3.16435 8.96146 3.0784C8.94687 2.99247 8.93958 2.9094 8.93958 2.82919C8.93958 2.36738 9.10121 1.97485 9.42448 1.65158C9.74774 1.32832 10.1403 1.16669 10.6021 1.16669C11.0639 1.16669 11.4564 1.32832 11.7797 1.65158C12.103 1.97485 12.2646 2.36738 12.2646 2.82919C12.2646 3.29099 12.103 3.68353 11.7797 4.00679C11.4564 4.33005 11.0639 4.49169 10.6021 4.49169C10.375 4.49169 10.1579 4.45523 9.95054 4.38231C9.74324 4.3094 9.56667 4.1903 9.42083 4.02502L5.00208 6.47502C5.02153 6.5528 5.03854 6.64273 5.05312 6.74481C5.06771 6.8469 5.075 6.93314 5.075 7.00353C5.075 7.07394 5.06771 7.14686 5.05312 7.22228C5.03854 7.29772 5.02153 7.37433 5.00208 7.4521L9.42083 9.96044C9.56667 9.82433 9.73681 9.71495 9.93125 9.63231C10.1257 9.54967 10.3493 9.50835 10.6021 9.50835C11.0639 9.50835 11.4564 9.66999 11.7797 9.99325C12.103 10.3165 12.2646 10.709 12.2646 11.1709C12.2646 11.6327 12.103 12.0252 11.7797 12.3485C11.4564 12.6717 11.0639 12.8334 10.6021 12.8334ZM10.6026 3.61669C10.8259 3.61669 11.0128 3.54117 11.1635 3.39014C11.3142 3.2391 11.3896 3.05195 11.3896 2.82868C11.3896 2.60541 11.3141 2.41842 11.163 2.26773C11.012 2.11703 10.8248 2.04169 10.6016 2.04169C10.3783 2.04169 10.1913 2.1172 10.0406 2.26824C9.88993 2.41927 9.81458 2.60643 9.81458 2.8297C9.81458 3.05297 9.8901 3.23995 10.0411 3.39065C10.1922 3.54134 10.3793 3.61669 10.6026 3.61669ZM3.41301 7.78752C3.63628 7.78752 3.82326 7.712 3.97396 7.56097C4.12465 7.40993 4.2 7.22278 4.2 6.99951C4.2 6.77624 4.12448 6.58926 3.97345 6.43856C3.82241 6.28787 3.63526 6.21252 3.41199 6.21252C3.18872 6.21252 3.00174 6.28804 2.85104 6.43907C2.70035 6.59011 2.625 6.77726 2.625 7.00053C2.625 7.2238 2.70052 7.41078 2.85155 7.56148C3.00259 7.71217 3.18974 7.78752 3.41301 7.78752ZM10.6026 11.9584C10.8259 11.9584 11.0128 11.8828 11.1635 11.7318C11.3142 11.5808 11.3896 11.3936 11.3896 11.1703C11.3896 10.9471 11.3141 10.7601 11.163 10.6094C11.012 10.4587 10.8248 10.3834 10.6016 10.3834C10.3783 10.3834 10.1913 10.4589 10.0406 10.6099C9.88993 10.7609 9.81458 10.9481 9.81458 11.1714C9.81458 11.3946 9.8901 11.5816 10.0411 11.7323C10.1922 11.883 10.3793 11.9584 10.6026 11.9584Z" fill="black"/>
</svg>
