<svg width="10" height="10" viewBox="0 0 10 10" fill="none" xmlns="http://www.w3.org/2000/svg">
<path d="M6.8375 7.4125L7.4 6.85L5.4125 4.85V2.3375H4.6625V5.15L6.8375 7.4125ZM5 10C4.31667 10 3.67083 9.86875 3.0625 9.60625C2.45417 9.34375 1.92292 8.98542 1.46875 8.53125C1.01458 8.07708 0.65625 7.54583 0.39375 6.9375C0.13125 6.32917 0 5.68333 0 5C0 4.31667 0.13125 3.67083 0.39375 3.0625C0.65625 2.45417 1.01458 1.92292 1.46875 1.46875C1.92292 1.01458 2.45417 0.65625 3.0625 0.39375C3.67083 0.13125 4.31667 0 5 0C5.68333 0 6.32917 0.13125 6.9375 0.39375C7.54583 0.65625 8.07708 1.01458 8.53125 1.46875C8.98542 1.92292 9.34375 2.45417 9.60625 3.0625C9.86875 3.67083 10 4.31667 10 5C10 5.68333 9.86875 6.32917 9.60625 6.9375C9.34375 7.54583 8.98542 8.07708 8.53125 8.53125C8.07708 8.98542 7.54583 9.34375 6.9375 9.60625C6.32917 9.86875 5.68333 10 5 10ZM5 9.25C6.16667 9.25 7.16667 8.83333 8 8C8.83333 7.16667 9.25 6.16667 9.25 5C9.25 3.83333 8.83333 2.83333 8 2C7.16667 1.16667 6.16667 0.75 5 0.75C3.83333 0.75 2.83333 1.16667 2 2C1.16667 2.83333 0.75 3.83333 0.75 5C0.75 6.16667 1.16667 7.16667 2 8C2.83333 8.83333 3.83333 9.25 5 9.25Z" fill="black"/>
</svg>
